<svg id="Layer_1" enable-background="new 0 0 512.015 512.015" height="512" viewBox="0 0 512.015 512.015" width="512" xmlns="http://www.w3.org/2000/svg"><g><path d="m8.645 185.672c-5.4 6.778-8.638 15.35-8.638 24.67v29.334c0 9.319 3.238 17.892 8.638 24.67-5.4 6.778-8.638 15.35-8.638 24.67v29.334c0 9.319 3.238 17.892 8.638 24.67-5.4 6.778-8.638 15.35-8.638 24.67v144.327h245.325v-144.329c0-9.319-3.238-17.892-8.638-24.67 5.4-6.778 8.638-15.35 8.638-24.67v-29.334c0-9.319-3.238-17.892-8.638-24.67 5.4-6.778 8.638-15.35 8.638-24.67v-29.334c0-9.319-3.238-17.892-8.638-24.67v-10.001h-228.049z" fill="#7ed7ff"/><path d="m245.331 210.342c0-9.319-3.238-17.892-8.638-24.67v-10.001h-114.024v336.344h122.662v-144.327c0-9.319-3.238-17.892-8.638-24.67 5.4-6.778 8.638-15.35 8.638-24.67v-29.334c0-9.319-3.238-17.892-8.638-24.67 5.4-6.778 8.638-15.35 8.638-24.67z" fill="#3ec3ff"/><path d="m56.127 0h133.084v90.003h-133.084z" fill="#077ccc"/><path d="m122.669 0h66.542v90.003h-66.542z" fill="#0556b2"/><path d="m318.835 343.019 13.47 153.996h143.333l13.47-153.996z" fill="#7ed7ff"/><path d="m489.108 343.019h-85.137v153.996h71.667z" fill="#3ec3ff"/><path d="m512.009 253.354h-216.075l22.625 258.662h170.823zm-50.116 228.661h-115.843l-10.846-123.997h137.535z" fill="#dff5ff"/><path d="m245.331 161.002v-44.878l-56.12-56.12h-133.084l-56.12 56.12v44.878c0 9.319 3.238 17.892 8.638 24.67h228.049c5.399-6.778 8.637-15.351 8.637-24.67z" fill="#dff5ff"/><g fill="#bfebff"><path d="m189.211 60.003h-66.542v125.668h114.024c5.4-6.778 8.638-15.35 8.638-24.67v-44.878z"/><path d="m512.009 253.354h-108.038v104.665h68.768l-10.846 123.996h-57.922v30h85.412z"/></g></g></svg>