<svg xmlns="http://www.w3.org/2000/svg" viewBox="0 0 700 300"><defs><style>.cls-1{fill:#43aa6d;}.cls-2{fill:#4ed183;}.cls-3{fill:#ebfff3;}</style></defs><g id="Layer_8" data-name="Layer 8"><rect class="cls-1" width="700" height="300"/></g><g id="Layer_7" data-name="Layer 7"><rect class="cls-2" x="12.33" y="13.82" width="675.17" height="272.36"/></g><g id="Layer_10" data-name="Layer 10"><circle class="cls-3" cx="378.92" cy="150" r="131.91"/><path d="M461.44,415.19c10.58,5.29,16.26,13.9,16.26,28.2,0,21.54-11.16,32.31-34.27,34.47v18.8H415.82V478.25H386.44V353.31h29.38v-18h27.61V353.7c21.54,2.35,32.7,13.51,32.7,32.9C476.13,399.92,471,408.92,461.44,415.19Zm-47.39-11h16.84c11.95,0,17.63-4.11,17.63-15.27,0-9.21-6.07-12.34-18.6-12.34H414.05Zm0,23.31v27.41h16.84c12.93,0,19.2-3.32,19.2-14.29,0-10-6.27-13.12-19.39-13.12Z" transform="translate(-50.09 -270.83)"/></g><g id="Layer_13" data-name="Layer 13"><path d="M589.13,468.25V526h13.39v11.64H562V526h13.39V484.67l-11.24,5.18-4.69-11.54,22.19-10.06Z" transform="translate(-50.09 -270.83)"/><path d="M639.08,538.62c-19.55,0-26.59-11-26.59-35.19s7-35.18,26.59-35.18,26.68,10.94,26.68,35.18S658.72,538.62,639.08,538.62Zm0-12.8c10.36,0,12.9-7.82,12.9-22.39,0-15.25-2.54-23.55-12.9-23.55s-12.81,8.3-12.81,23.55C626.27,518,628.81,525.82,639.08,525.82Z" transform="translate(-50.09 -270.83)"/><path d="M697.62,538.62c-19.55,0-26.59-11-26.59-35.19s7-35.18,26.59-35.18,26.69,10.94,26.69,35.18S717.27,538.62,697.62,538.62Zm0-12.8c10.36,0,12.9-7.82,12.9-22.39,0-15.25-2.54-23.55-12.9-23.55s-12.81,8.3-12.81,23.55C684.81,518,687.36,525.82,697.62,525.82Z" transform="translate(-50.09 -270.83)"/><path d="M113.05,527.05c4.84-6.89,8.36-15,8.36-23.76,0-9.38-3.23-15-11.73-15-9.09,0-11.88,6.45-11.88,13.93,0,6.74,1.32,12.75,8.51,12.75h3.52l-1,17.45h-3.37c-21.85,0-28.3-13.63-28.3-30.2,0-17,8.36-31.38,32.55-31.38,22.14,0,32.41,11.29,32.41,32.4,0,14.67-4,27-15.4,38Z" transform="translate(-50.09 -270.83)"/><path d="M152.05,501.68c0-17,8.21-30.79,32.4-30.79,24.34,0,32.55,13.78,32.55,30.79,0,16.72-8.21,30.79-32.55,30.79C160.26,532.47,152.05,518.4,152.05,501.68Zm44.28,0c0-7.48-2.79-13.34-11.88-13.34-8.94,0-11.73,5.86-11.73,13.34S175.51,515,184.45,515C193.54,515,196.33,509.16,196.33,501.68Z" transform="translate(-50.09 -270.83)"/><path d="M227,501.68c0-17,8.21-30.79,32.4-30.79s32.55,13.78,32.55,30.79c0,16.72-8.21,30.79-32.55,30.79S227,518.4,227,501.68Zm44.28,0c0-7.48-2.79-13.34-11.88-13.34s-11.73,5.86-11.73,13.34S250.43,515,259.37,515,271.25,509.16,271.25,501.68Z" transform="translate(-50.09 -270.83)"/></g></svg>