<svg xmlns="http://www.w3.org/2000/svg" viewBox="0 0 624.41 624.41"><defs><style>.cls-1{fill:#b2b2b2;}.cls-2{fill:#e2d154;}</style></defs><g id="Layer_1" data-name="Layer 1"><circle class="cls-1" cx="312.21" cy="312.21" r="312.21"/></g><g id="Layer_2" data-name="Layer 2"><circle class="cls-2" cx="312.21" cy="312.21" r="263.13"/></g><g id="Layer_6" data-name="Layer 6"><path d="M318.77,276.84V476.9h46.37v40.28H224.66V476.9H271V333.71l-38.93,17.94-16.25-39.94,76.84-34.87Z" transform="translate(-87.79 -87.79)"/><path d="M491.73,520.57c-67.71,0-92.08-37.92-92.08-121.87S424,276.84,491.73,276.84c68,0,92.41,37.91,92.41,121.86S559.76,520.57,491.73,520.57Zm0-44.35c35.88,0,44.68-27.08,44.68-77.52,0-52.8-8.8-81.58-44.68-81.58-35.55,0-44.35,28.78-44.35,81.58C447.38,449.14,456.18,476.22,491.73,476.22Z" transform="translate(-87.79 -87.79)"/></g></svg>