<svg xmlns="http://www.w3.org/2000/svg" viewBox="0 0 700 300"><defs><style>.cls-1{fill:#43aa6d;}.cls-2{fill:#4ed183;}.cls-3{fill:#ebfff3;}</style></defs><g id="Layer_8" data-name="Layer 8"><rect class="cls-1" width="700" height="300"/></g><g id="Layer_7" data-name="Layer 7"><rect class="cls-2" x="12.33" y="13.82" width="675.17" height="272.36"/></g><g id="Layer_10" data-name="Layer 10"><circle class="cls-3" cx="378.92" cy="150" r="131.91"/><path d="M461.44,415.19c10.58,5.29,16.26,13.9,16.26,28.2,0,21.54-11.16,32.31-34.27,34.47v18.8H415.82V478.25H386.44V353.31h29.38v-18h27.61V353.7c21.54,2.35,32.7,13.51,32.7,32.9C476.13,399.92,471,408.92,461.44,415.19Zm-47.39-11h16.84c11.95,0,17.63-4.11,17.63-15.27,0-9.21-6.07-12.34-18.6-12.34H414.05Zm0,23.31v27.41h16.84c12.93,0,19.2-3.32,19.2-14.29,0-10-6.27-13.12-19.39-13.12Z" transform="translate(-50.09 -270.83)"/></g><g id="Layer_11" data-name="Layer 11"><path d="M572.83,487.63c1.19-13,11.36-20.24,25-20.24s22.71,7.8,22.71,17.87c0,11.85-5.73,17.38-18.86,30.9l-8.09,8.39h29.81v12.94H571.26v-9.28l24.08-24.88c5.53-5.73,11.26-11.26,11.26-17.38,0-4.94-4.05-6.81-9.18-6.81-7.21,0-10.37,4.54-10.67,11.45Z" transform="translate(-50.09 -270.83)"/><path d="M656.45,538.47c-19.74,0-26.85-11.05-26.85-35.54s7.11-35.54,26.85-35.54,26.95,11.06,26.95,35.54S676.29,538.47,656.45,538.47Zm0-12.93c10.46,0,13-7.9,13-22.61,0-15.4-2.57-23.79-13-23.79s-12.93,8.39-12.93,23.79C643.52,517.64,646.08,525.54,656.45,525.54Z" transform="translate(-50.09 -270.83)"/><path d="M138,505.68V487.21c0-10.83,3.2-16.32,12.66-16.32,6.87,0,11.6,3.2,16,8.39l4-6.87h13.89v38.46c0,16-18,24.1-35.86,24.1-18,0-35.86-8.08-35.86-24.26V457.16h20.45v50.2c0,6.25,6.1,9.46,15.25,9.46s15.42-3.21,15.42-9.46v-11c0-5.8-2.29-7.78-6.11-7.78v17.09Z" transform="translate(-50.09 -270.83)"/><path d="M192.91,502.93c0-17.7,8.54-32,33.72-32,25.33,0,33.88,14.34,33.88,32,0,17.4-8.55,32-33.88,32C201.45,535,192.91,520.33,192.91,502.93Zm46.08,0c0-7.78-2.9-13.88-12.36-13.88-9.31,0-12.21,6.1-12.21,13.88s2.9,13.89,12.21,13.89C236.09,516.82,239,510.71,239,502.93Z" transform="translate(-50.09 -270.83)"/></g></svg>