<svg xmlns="http://www.w3.org/2000/svg" viewBox="0 0 700 300"><defs><style>.cls-1{fill:#43aa6d;}.cls-2{fill:#4ed183;}.cls-3{fill:#ebfff3;}</style></defs><g id="Layer_8" data-name="Layer 8"><rect class="cls-1" width="700" height="300"/></g><g id="Layer_7" data-name="Layer 7"><rect class="cls-2" x="12.33" y="13.82" width="675.17" height="272.36"/></g><g id="Layer_10" data-name="Layer 10"><circle class="cls-3" cx="378.92" cy="150" r="131.91"/><path d="M461.44,415.19c10.58,5.29,16.26,13.9,16.26,28.2,0,21.54-11.16,32.31-34.27,34.47v18.8H415.82V478.25H386.44V353.31h29.38v-18h27.61V353.7c21.54,2.35,32.7,13.51,32.7,32.9C476.13,399.92,471,408.92,461.44,415.19Zm-47.39-11h16.84c11.95,0,17.63-4.11,17.63-15.27,0-9.21-6.07-12.34-18.6-12.34H414.05Zm0,23.31v27.41h16.84c12.93,0,19.2-3.32,19.2-14.29,0-10-6.27-13.12-19.39-13.12Z" transform="translate(-50.09 -270.83)"/></g><g id="Layer_14" data-name="Layer 14"><path d="M581.76,514.69c.6,7.84,6.43,13,13.16,13,7.14,0,12.17-4.73,12.17-13.17,0-5.93-2.52-11.76-10.76-11.76a17.49,17.49,0,0,0-9.55,2.91H572.51l1.81-37.39h43.12v12.47H587.79l-.61,12.06a36.2,36.2,0,0,1,11.86-2c12.27,0,22.22,6.63,22.22,23.72s-10.65,25.13-26.74,25.13c-12.16,0-24.22-7.14-26.13-21.11Z" transform="translate(-50.09 -270.83)"/><path d="M655,539.62c-20.1,0-27.34-11.26-27.34-36.19s7.24-36.18,27.34-36.18,27.44,11.26,27.44,36.18S675.23,539.62,655,539.62Zm0-13.17c10.65,0,13.27-8,13.27-23,0-15.68-2.62-24.22-13.27-24.22s-13.17,8.54-13.17,24.22C641.86,518.41,644.47,526.45,655,526.45Z" transform="translate(-50.09 -270.83)"/><path d="M177.87,495.68v17.05h-9.3c0,3.25,1.7,5.27,9.14,5.27h5.12v16.89h-7.6c-9.91,0-14.87-2.32-17.66-6.51-4.81,5.27-11.32,8.06-20.46,8.06-17.52,0-27.75-9-27.75-29.29,0-16,4.34-25.27,13-30.07a17.67,17.67,0,0,1-.77-5,16.43,16.43,0,1,1,32.86,0v.77h2.94l5.12-15.5H185l-11.16,32.55H142.22c-8.06,0-11,4.81-11,14.26,0,9.15,2.32,13.8,8.06,13.8,5.42,0,7.44-3.26,7.44-8.84v-3.1c0-8.06,2.32-10.38,9.76-10.38Zm-40-18.91a4.73,4.73,0,1,0-4.65-4.65A4.61,4.61,0,0,0,137.88,476.77Z" transform="translate(-50.09 -270.83)"/><path d="M191.5,503.89c0-18,8.68-32.55,34.25-32.55,25.73,0,34.41,14.57,34.41,32.55,0,17.67-8.68,32.55-34.41,32.55C200.18,536.44,191.5,521.56,191.5,503.89Zm46.81,0c0-7.9-2.95-14.1-12.56-14.1-9.45,0-12.4,6.2-12.4,14.1s3,14.11,12.4,14.11C235.36,518,238.31,511.8,238.31,503.89Z" transform="translate(-50.09 -270.83)"/></g></svg>