<svg xmlns="http://www.w3.org/2000/svg" viewBox="0 0 624.41 624.41"><defs><style>.cls-1{fill:#b2b2b2;}.cls-2{fill:#e2d154;}</style></defs><g id="Layer_1" data-name="Layer 1"><circle class="cls-1" cx="312.21" cy="312.21" r="312.21"/></g><g id="Layer_2" data-name="Layer 2"><circle class="cls-2" cx="312.21" cy="312.21" r="263.13"/></g><g id="Layer_5" data-name="Layer 5"><path d="M354.15,437.74c2.12,27.51,22.57,45.5,46.2,45.5,25,0,42.68-16.58,42.68-46.21,0-20.81-8.82-41.26-37.74-41.26-8.82,0-19.75,1.76-33.5,10.22H321.7l6.35-131.2H479.36v43.74h-104l-2.11,42.32a127.13,127.13,0,0,1,41.61-7.05c43,0,77.95,23.27,77.95,83.23s-37.39,88.18-93.82,88.18c-42.67,0-85-25.05-91.7-74.07Z" transform="translate(-87.79 -87.79)"/></g></svg>